<?xml version="1.0" encoding="UTF-8"?> <svg xmlns="http://www.w3.org/2000/svg" height="1696" overflow="hidden" width="3703" xml:space="preserve"><g transform="translate(-348 -513)"><path d="m354.5 538.546c0-11.624 9.423-21.046 21.046-21.046h816.904c11.63 0 21.05 9.422 21.05 21.046v1646.904c0 11.63-9.42 21.05-21.05 21.05h-816.904c-11.623 0-21.046-9.42-21.046-21.05z" style="stroke:#cecedb;stroke-width:4.58333;stroke-linejoin:round;stroke-miterlimit:10;fill:#f0f6ff;fill-rule:evenodd"></path><text fill="#1b2838" font-family="Pathway Extreme,Pathway Extreme_MSFontService,sans-serif" font-size="64" font-weight="700" transform="translate(621.085 650)">Channels</text><path d="m460.5 763.334c0-17.581 14.253-31.834 31.834-31.834h570.336c17.58 0 31.83 14.253 31.83 31.834v127.332c0 17.582-14.25 31.834-31.83 31.834h-570.336c-17.581 0-31.834-14.252-31.834-31.834z" style="stroke:#cecedb;stroke-width:4.58333;stroke-linejoin:round;stroke-miterlimit:10;fill:#fff;fill-rule:evenodd"></path><text fill="#1b2838" font-family="Pathway Extreme,Pathway Extreme_MSFontService,sans-serif" font-size="48" font-weight="400" transform="translate(622.18 844)">Core Banking</text><path d="m501.5 1013.83c0-15.644 12.686-28.33 28.334-28.33h494.336c15.64 0 28.33 12.686 28.33 28.33v113.34c0 15.64-12.69 28.33-28.33 28.33h-494.336c-15.648 0-28.334-12.69-28.334-28.33z" style="stroke:#cecedb;stroke-width:4.58333;stroke-linejoin:round;stroke-miterlimit:10;fill:#fff;fill-rule:evenodd"></path><text fill="#1b2838" font-family="Pathway Extreme,Pathway Extreme_MSFontService,sans-serif" font-size="48" font-weight="400" transform="translate(557.726 1087)">Corporate Banking</text><path d="m501.5 1249.83c0-15.64 12.686-28.33 28.334-28.33h494.336c15.64 0 28.33 12.69 28.33 28.33v113.34c0 15.64-12.69 28.33-28.33 28.33h-494.336c-15.648 0-28.334-12.69-28.334-28.33z" style="stroke:#cecedb;stroke-width:4.58333;stroke-linejoin:round;stroke-miterlimit:10;fill:#fff;fill-rule:evenodd"></path><text fill="#1b2838" font-family="Pathway Extreme,Pathway Extreme_MSFontService,sans-serif" font-size="48" font-weight="400" transform="translate(692.075 1323)">Branch</text><path d="m501.5 1484.83c0-15.64 12.686-28.33 28.334-28.33h494.336c15.64 0 28.33 12.69 28.33 28.33v113.34c0 15.64-12.69 28.33-28.33 28.33h-494.336c-15.648 0-28.334-12.69-28.334-28.33z" style="stroke:#cecedb;stroke-width:4.58333;stroke-linejoin:round;stroke-miterlimit:10;fill:#fff;fill-rule:evenodd"></path><text fill="#1b2838" font-family="Pathway Extreme,Pathway Extreme_MSFontService,sans-serif" font-size="48" font-weight="400" transform="translate(680.903 1558)">Internet</text><path d="m501.5 1718.83c0-15.64 12.686-28.33 28.334-28.33h494.336c15.64 0 28.33 12.69 28.33 28.33v113.34c0 15.64-12.69 28.33-28.33 28.33h-494.336c-15.648 0-28.334-12.69-28.334-28.33z" style="stroke:#cecedb;stroke-width:4.58333;stroke-linejoin:round;stroke-miterlimit:10;fill:#fff;fill-rule:evenodd"></path><text fill="#1b2838" font-family="Pathway Extreme,Pathway Extreme_MSFontService,sans-serif" font-size="48" font-weight="400" transform="translate(697.231 1792)">Mobile</text><path d="m501.5 1955.83c0-15.64 12.686-28.33 28.334-28.33h494.336c15.64 0 28.33 12.69 28.33 28.33v113.34c0 15.64-12.69 28.33-28.33 28.33h-494.336c-15.648 0-28.334-12.69-28.334-28.33z" style="stroke:#cecedb;stroke-width:4.58333;stroke-linejoin:round;stroke-miterlimit:10;fill:#fff;fill-rule:evenodd"></path><text fill="#1b2838" font-family="Pathway Extreme,Pathway Extreme_MSFontService,sans-serif" font-size="48" font-weight="400" transform="translate(729.601 2029)">ATM</text><path d="m1052 1070h211.53v941.88h-205.42" fill="none" stroke="#8b8b98" stroke-miterlimit="8" stroke-width="10.3125"></path><path d="m1052 1541h211.53v234.52h-205.42" fill="none" stroke="#8b8b98" stroke-miterlimit="8" stroke-width="10.3125"></path><path d="m1442.5 542.227c0-13.656 11.07-24.727 24.73-24.727h1467.54c13.66 0 24.73 11.071 24.73 24.727v1639.543c0 13.66-11.07 24.73-24.73 24.73h-1467.54c-13.66 0-24.73-11.07-24.73-24.73z" style="stroke:#cecedb;stroke-width:4.58333;stroke-linejoin:round;stroke-miterlimit:10;fill:#f0f6ff;fill-rule:evenodd"></path><text fill="#1b2838" font-family="Pathway Extreme,Pathway Extreme_MSFontService,sans-serif" font-size="64" font-weight="700" transform="translate(1808.01 651)">Payment Hub Services</text><path d="m3188.5 534.482c0-9.379 7.6-16.982 16.98-16.982h825.04c9.38 0 16.98 7.603 16.98 16.982v1655.038c0 9.38-7.6 16.98-16.98 16.98h-825.04c-9.38 0-16.98-7.6-16.98-16.98z" style="stroke:#cecedb;stroke-width:4.58333;stroke-linejoin:round;stroke-miterlimit:10;fill:#f0f6ff;fill-rule:evenodd"></path><text fill="#1b2838" font-family="Pathway Extreme,Pathway Extreme_MSFontService,sans-serif" font-size="64" font-weight="700" transform="translate(3287.13 649)">Payment Networks</text><path d="m3294.5 763.334c0-17.581 14.25-31.834 31.83-31.834h570.34c17.58 0 31.83 14.253 31.83 31.834v127.332c0 17.582-14.25 31.834-31.83 31.834h-570.34c-17.58 0-31.83-14.252-31.83-31.834z" style="stroke:#cecedb;stroke-width:4.58333;stroke-linejoin:round;stroke-miterlimit:10;fill:#fff;fill-rule:evenodd"></path><text fill="#1b2838" font-family="Pathway Extreme,Pathway Extreme_MSFontService,sans-serif" font-size="48" font-weight="400" transform="translate(3566.66 844)">B2B</text><path d="m25.7813-5.15625h150.8767v1184.74625h-144.7657v-10.31h139.6097l-5.156 5.16v-1174.44l5.156 5.15625h-145.7207zm5.1562 20.62505-30.9375-15.4688 30.9375-15.4688zm6.111 1174.4312-30.93751-15.46 30.93751-15.47z" fill="#8b8b98" transform="matrix(-1 0 0 1 3300.11 827)"></path><path d="m25.7812-5.15625h150.8768v597.53025h-144.7658v-10.312h139.6098l-5.156 5.156v-587.218l5.156 5.15625h-145.7208zm5.1563 20.62505-30.9375-15.4688 30.9375-15.4688zm6.111 587.2182-30.93751-15.469 30.93751-15.469z" fill="#8b8b98" transform="matrix(-1 0 0 1 3300.11 1121)"></path><path d="m3294.5 1057.33c0-17.58 14.25-31.83 31.83-31.83h570.34c17.58 0 31.83 14.25 31.83 31.83v127.34c0 17.58-14.25 31.83-31.83 31.83h-570.34c-17.58 0-31.83-14.25-31.83-31.83z" style="stroke:#cecedb;stroke-width:4.58333;stroke-linejoin:round;stroke-miterlimit:10;fill:#fff;fill-rule:evenodd"></path><text fill="#1b2838" font-family="Pathway Extreme,Pathway Extreme_MSFontService,sans-serif" font-size="48" font-weight="400" transform="translate(3585.57 1138)">FX</text><path d="m3294.5 1351.33c0-17.58 14.25-31.83 31.83-31.83h570.34c17.58 0 31.83 14.25 31.83 31.83v127.34c0 17.58-14.25 31.83-31.83 31.83h-570.34c-17.58 0-31.83-14.25-31.83-31.83z" style="stroke:#cecedb;stroke-width:4.58333;stroke-linejoin:round;stroke-miterlimit:10;fill:#fff;fill-rule:evenodd"></path><g fill="#1b2838" font-family="Pathway Extreme,Pathway Extreme_MSFontService,sans-serif" font-size="48" font-weight="400"><text transform="translate(3454.66 1402)">Bank</text><text transform="translate(3568.67 1402)">-</text><text transform="translate(3585.86 1402)">to</text><text transform="translate(3635.7 1402)">-</text><text transform="translate(3652.89 1402)">Bank</text><text transform="translate(3529.14 1459)">(SWIFT)</text></g><path d="m3294.5 1644.33c0-17.58 14.25-31.83 31.83-31.83h570.34c17.58 0 31.83 14.25 31.83 31.83v127.34c0 17.58-14.25 31.83-31.83 31.83h-570.34c-17.58 0-31.83-14.25-31.83-31.83z" style="stroke:#cecedb;stroke-width:4.58333;stroke-linejoin:round;stroke-miterlimit:10;fill:#fff;fill-rule:evenodd"></path><text fill="#1b2838" font-family="Pathway Extreme,Pathway Extreme_MSFontService,sans-serif" font-size="48" font-weight="400" transform="translate(3555.77 1696)">Card</text><text fill="#1b2838" font-family="Pathway Extreme,Pathway Extreme_MSFontService,sans-serif" font-size="48" font-weight="400" transform="translate(3422 1753)">(Visa, MC, Amex)</text><path d="m3294.5 1938.33c0-17.58 14.25-31.83 31.83-31.83h570.34c17.58 0 31.83 14.25 31.83 31.83v127.34c0 17.58-14.25 31.83-31.83 31.83h-570.34c-17.58 0-31.83-14.25-31.83-31.83z" style="stroke:#cecedb;stroke-width:4.58333;stroke-linejoin:round;stroke-miterlimit:10;fill:#fff;fill-rule:evenodd"></path><text fill="#1b2838" font-family="Pathway Extreme,Pathway Extreme_MSFontService,sans-serif" font-size="48" font-weight="400" transform="translate(3568.94 1990)">P2P</text><text fill="#1b2838" font-family="Pathway Extreme,Pathway Extreme_MSFontService,sans-serif" font-size="48" font-weight="400" transform="translate(3442.63 2047)">(</text><text fill="#1b2838" font-family="Pathway Extreme,Pathway Extreme_MSFontService,sans-serif" font-size="48" font-weight="400" transform="translate(3459.24 2047)">Zelle</text><text fill="#1b2838" font-family="Pathway Extreme,Pathway Extreme_MSFontService,sans-serif" font-size="48" font-weight="400" transform="translate(3570.39 2047)">, Venmo)</text><path d="m1546 761.223c0-12.273 9.95-22.223 22.22-22.223h626.56c12.27 0 22.22 9.95 22.22 22.223v828.557c0 12.27-9.95 22.22-22.22 22.22h-626.56c-12.27 0-22.22-9.95-22.22-22.22z" style="stroke:#00c5d1;stroke-width:10.3125;stroke-linejoin:round;stroke-miterlimit:10;fill:#fff;fill-rule:evenodd"></path><text fill="#1b2838" font-family="Pathway Extreme,Pathway Extreme_MSFontService,sans-serif" font-size="64" font-weight="700" transform="translate(1648 873)">Payment Hub</text><path d="m2386 756.459c0-9.642 7.82-17.459 17.46-17.459h437.08c9.64 0 17.46 7.817 17.46 17.459v682.081c0 9.64-7.82 17.46-17.46 17.46h-437.08c-9.64 0-17.46-7.82-17.46-17.46z" style="stroke:#00c5d1;stroke-width:10.3125;stroke-linejoin:round;stroke-miterlimit:10;fill:#fff;fill-rule:evenodd"></path><text fill="#1b2838" font-family="Pathway Extreme,Pathway Extreme_MSFontService,sans-serif" font-size="64" font-weight="700" transform="translate(2471.33 871)">Gateway</text><path d="m1627.5 1014.67c0-15.559 12.61-28.17 28.17-28.17h466.66c15.56 0 28.17 12.611 28.17 28.17v112.66c0 15.56-12.61 28.17-28.17 28.17h-466.66c-15.56 0-28.17-12.61-28.17-28.17z" style="stroke:#00c5d1;stroke-width:4.58333;stroke-linejoin:round;stroke-miterlimit:10;fill:#1b2838;fill-rule:evenodd"></path><text fill="#f0f6ff" font-family="Pathway Extreme,Pathway Extreme_MSFontService,sans-serif" font-size="48" font-weight="400" transform="translate(1710.42 1087)">Authentication</text><path d="m1627.5 1214.67c0-15.56 12.61-28.17 28.17-28.17h466.66c15.56 0 28.17 12.61 28.17 28.17v112.66c0 15.56-12.61 28.17-28.17 28.17h-466.66c-15.56 0-28.17-12.61-28.17-28.17z" style="stroke:#00c5d1;stroke-width:4.58333;stroke-linejoin:round;stroke-miterlimit:10;fill:#1b2838;fill-rule:evenodd"></path><text fill="#f0f6ff" font-family="Pathway Extreme,Pathway Extreme_MSFontService,sans-serif" font-size="48" font-weight="400" transform="translate(1698.67 1259)">Fraud Detection </text><text fill="#f0f6ff" font-family="Pathway Extreme,Pathway Extreme_MSFontService,sans-serif" font-size="48" font-weight="400" transform="translate(1802.37 1316)">Models</text><path d="m1627.5 1415.67c0-15.56 12.61-28.17 28.17-28.17h466.66c15.56 0 28.17 12.61 28.17 28.17v112.66c0 15.56-12.61 28.17-28.17 28.17h-466.66c-15.56 0-28.17-12.61-28.17-28.17z" style="stroke:#00c5d1;stroke-width:4.58333;stroke-linejoin:round;stroke-miterlimit:10;fill:#1b2838;fill-rule:evenodd"></path><text fill="#f0f6ff" font-family="Pathway Extreme,Pathway Extreme_MSFontService,sans-serif" font-size="48" font-weight="400" transform="translate(1670.32 1488)">Network Selection</text><path d="m2446.5 1110.67c0-15.56 12.61-28.17 28.17-28.17h303.66c15.56 0 28.17 12.61 28.17 28.17v112.66c0 15.56-12.61 28.17-28.17 28.17h-303.66c-15.56 0-28.17-12.61-28.17-28.17z" style="stroke:#00c5d1;stroke-width:4.58333;stroke-linejoin:round;stroke-miterlimit:10;fill:#1b2838;fill-rule:evenodd"></path><text fill="#f0f6ff" font-family="Pathway Extreme,Pathway Extreme_MSFontService,sans-serif" font-size="48" font-weight="400" transform="translate(2485.32 1184)">Connectors</text><path d="m1546.5 1797c0 27.34 150.21 49.5 335.5 49.5s335.5-22.16 335.5-49.5v297c0 27.34-150.21 49.5-335.5 49.5s-335.5-22.16-335.5-49.5z" fill="#fff" fill-rule="evenodd"></path><path d="m1546.5 1797c0-27.34 150.21-49.5 335.5-49.5s335.5 22.16 335.5 49.5-150.21 49.5-335.5 49.5-335.5-22.16-335.5-49.5z" fill="#fff" fill-rule="evenodd"></path><path d="m2217.5 1797c0 27.34-150.21 49.5-335.5 49.5s-335.5-22.16-335.5-49.5 150.21-49.5 335.5-49.5 335.5 22.16 335.5 49.5v297c0 27.34-150.21 49.5-335.5 49.5s-335.5-22.16-335.5-49.5v-297" fill="none" stroke="#00c5d1" stroke-linejoin="round" stroke-miterlimit="10" stroke-width="6.875"></path><text fill="#1b2838" font-family="Pathway Extreme,Pathway Extreme_MSFontService,sans-serif" font-size="64" font-weight="700" transform="translate(1678.37 1973)">Operational </text><text fill="#1b2838" font-family="Pathway Extreme,Pathway Extreme_MSFontService,sans-serif" font-size="64" font-weight="700" transform="translate(1700.71 2050)">Data Store</text><path d="m2370.5 1790.67c0-29.92 24.25-54.17 54.17-54.17h416.66c29.92 0 54.17 24.25 54.17 54.17v216.66c0 29.92-24.25 54.17-54.17 54.17h-416.66c-29.92 0-54.17-24.25-54.17-54.17z" style="stroke:#cecedb;stroke-width:4.58333;stroke-linejoin:round;stroke-miterlimit:10;fill:#fff;fill-rule:evenodd"></path><text fill="#1b2838" font-family="Pathway Extreme,Pathway Extreme_MSFontService,sans-serif" font-size="48" font-weight="400" transform="translate(2450.93 1829)">Origination and </text><text fill="#1b2838" font-family="Pathway Extreme,Pathway Extreme_MSFontService,sans-serif" font-size="48" font-weight="400" transform="translate(2499.63 1886)">Exceptions</text><text fill="#1b2838" font-family="Pathway Extreme,Pathway Extreme_MSFontService,sans-serif" font-size="48" font-weight="400" transform="translate(2413.96 2002)">Application Server</text><path d="m1119.78 821.844h400.98v10.313l-400.98-.001zm5.16 20.625-30.94-15.469 30.94-15.469zm390.67-30.937 30.93 15.468-30.93 15.469z" fill="#8b8b98"></path><path d="m1077.78 1300.84h442.36v10.32h-442.36zm5.16 20.63-30.94-15.47 30.94-15.47zm432.04-30.94 30.94 15.47-30.94 15.47z" fill="#8b8b98"></path><path d="m5.15629 25.7813.00028 181.9387h-10.3125l-.00028-181.9387zm-20.62499 5.1562 15.4687-30.9375 15.4688 30.9375zm30.9378 171.6265-15.46873911 30.937-15.46876089-30.937z" fill="#8b8b98" transform="matrix(1 0 0 -1 1882 1845.5)"></path><path d="m2238.78 1543.84h399.08v166.08h-10.31v-160.92l5.16 5.16h-393.93zm5.16 20.63-30.94-15.47 30.94-15.47zm404.23 140.29-15.46 30.94-15.47-30.94z" fill="#8b8b98"></path><path d="m2242.78 1092.84h117.5v10.32h-117.5zm5.16 20.63-30.94-15.47 30.94-15.47zm107.18-30.94 30.94 15.47-30.94 15.47z" fill="#8b8b98"></path><path d="m2883.78 1092.84h249.61v321.7l-5.16-5.16h140.37v10.31h-145.53v-321.69l5.16 5.16h-244.45zm5.16 20.63-30.94-15.47 30.94-15.47zm374.5 285.6 30.94 15.47-30.94 15.46z" fill="#8b8b98"></path></g></svg> 